HIERARCHY
ROOT Hips
{
	OFFSET 0.000000 0.000000 0.000000
	CHANNELS 6 Xposition Yposition Zposition Xrotation Yrotation Zrotation
	JOINT LeftUpLeg_virtual
	{
		OFFSET 0.000000 0.000000 0.000000
		CHANNELS 3 Xrotation Yrotation Zrotation
		JOINT LeftUpLeg
		{
			OFFSET 11.394100 -6.187798 -0.413800
			CHANNELS 3 Xrotation Yrotation Zrotation
			JOINT LeftLeg
			{
				OFFSET 0.430247 -32.302673 3.732800
				CHANNELS 3 Xrotation Yrotation Zrotation
				JOINT LeftFoot
				{
					OFFSET -0.430247 -48.264931 -6.423300
					CHANNELS 3 Xrotation Yrotation Zrotation
					JOINT LeftToeBase
					{
						OFFSET 4.230900 -16.068199 23.438400
						CHANNELS 3 Xrotation Yrotation Zrotation
						JOINT LeftToe_End
						{
							OFFSET 4.510700 0.695400 19.974600
							CHANNELS 3 Xrotation Yrotation Zrotation
							End Site
							{
								OFFSET 0 0 0
							}
						}
					}
				}
			}
		}
	}
	JOINT RightUpLeg_virtual
	{
		OFFSET 0.000000 0.000000 0.000000
		CHANNELS 3 Xrotation Yrotation Zrotation
		JOINT RightUpLeg
		{
			OFFSET -11.333700 -6.187798 -0.413800
			CHANNELS 3 Xrotation Yrotation Zrotation
			JOINT RightLeg
			{
				OFFSET -0.430392 -32.302628 3.733000
				CHANNELS 3 Xrotation Yrotation Zrotation
				JOINT RightFoot
				{
					OFFSET 0.430392 -48.264973 -6.423500
					CHANNELS 3 Xrotation Yrotation Zrotation
					JOINT RightToeBase
					{
						OFFSET -4.230900 -16.068199 23.438400
						CHANNELS 3 Xrotation Yrotation Zrotation
						JOINT RightToe_End
						{
							OFFSET -4.510700 0.695400 19.974600
							CHANNELS 3 Xrotation Yrotation Zrotation
							End Site
							{
								OFFSET 0 0 0
							}
						}
					}
				}
			}
		}
	}
	JOINT Spine_virtual
	{
		OFFSET 0.000000 0.000000 0.000000
		CHANNELS 3 Xrotation Yrotation Zrotation
		JOINT Spine
		{
			OFFSET -0.002400 12.777504 0.315300
			CHANNELS 3 Xrotation Yrotation Zrotation
			JOINT Spine1
			{
				OFFSET -0.002067 5.816869 0.032633
				CHANNELS 3 Xrotation Yrotation Zrotation
				JOINT Spine1_split
				{
					OFFSET -0.002067 5.816869 0.032633
					CHANNELS 3 Xrotation Yrotation Zrotation
					JOINT Spine2
					{
						OFFSET -0.002067 5.816869 0.032633
						CHANNELS 3 Xrotation Yrotation Zrotation
						JOINT Neck_virtual
						{
							OFFSET 0.000000 0.000000 0.000000
							CHANNELS 3 Xrotation Yrotation Zrotation
							JOINT Neck
							{
								OFFSET -0.003700 21.199493 -0.826900
								CHANNELS 3 Xrotation Yrotation Zrotation
								JOINT Head
								{
									OFFSET 0.000000 20.442200 4.834800
									CHANNELS 3 Xrotation Yrotation Zrotation
									JOINT HeadTop_End
									{
										OFFSET 0.000000 34.668396 4.968400
										CHANNELS 3 Xrotation Yrotation Zrotation
										End Site
										{
											OFFSET 0 0 0
										}
									}
								}
							}
						}
						JOINT LeftShoulder_virtual
						{
							OFFSET 0.000000 0.000000 0.000000
							CHANNELS 3 Xrotation Yrotation Zrotation
							JOINT LeftShoulder
							{
								OFFSET 3.288150 8.794197 -1.372250
								CHANNELS 3 Xrotation Yrotation Zrotation
								JOINT LeftShoulder_split
								{
									OFFSET 3.288150 8.794197 -1.372250
									CHANNELS 3 Xrotation Yrotation Zrotation
									JOINT LeftArm
									{
										OFFSET 11.953299 -2.279007 -0.146200
										CHANNELS 3 Xrotation Yrotation Zrotation
										JOINT LeftForeArm
										{
											OFFSET 18.448900 0.000000 0.000000
											CHANNELS 3 Xrotation Yrotation Zrotation
											JOINT LeftHand
											{
												OFFSET 29.527798 0.000000 0.000000
												CHANNELS 3 Xrotation Yrotation Zrotation
												End Site
												{
													OFFSET 0 0 0
												}
											}
										}
									}
								}
							}
						}
						JOINT RightShoulder_virtual
						{
							OFFSET 0.000000 0.000000 0.000000
							CHANNELS 3 Xrotation Yrotation Zrotation
							JOINT RightShoulder
							{
								OFFSET -3.249400 8.794197 -1.372250
								CHANNELS 3 Xrotation Yrotation Zrotation
								JOINT RightShoulder_split
								{
									OFFSET -3.249400 8.794197 -1.372250
									CHANNELS 3 Xrotation Yrotation Zrotation
									JOINT RightArm
									{
										OFFSET -11.953299 -2.279007 -0.146200
										CHANNELS 3 Xrotation Yrotation Zrotation
										JOINT RightForeArm
										{
											OFFSET -18.448900 0.000000 0.000000
											CHANNELS 3 Xrotation Yrotation Zrotation
											JOINT RightHand
											{
												OFFSET -29.527802 0.000000 0.000000
												CHANNELS 3 Xrotation Yrotation Zrotation
												End Site
												{
													OFFSET 0 0 0
												}
											}
										}
									}
								}
							}
						}
					}
				}
			}
		}
	}
}
MOTION
Frames: 4
Frame Time: 0.03333333
-1.292980 97.134079 -0.155052 0.000000 0.000000 0.000000 -23.824376 -10.860591 -1.522539 2.949385 20.421231 13.750066 33.944845 12.709790 -10.506200 -15.693874 26.757944 8.282238 -1.897266 -0.935985 -2.390774 0.000000 0.000000 0.000000 -22.572034 -12.135530 -2.108501 10.768600 -10.480987 -5.494979 31.611369 -9.724886 -0.688722 -16.518679 -26.454308 1.910180 -9.815527 -0.818393 0.885222 0.000000 0.000000 0.000000 -22.262725 -9.631542 -1.189839 9.603499 -3.659472 -0.718339 3.215499 -1.078499 -0.101517 0.670606 1.465096 -0.085380 0.000000 0.000000 0.000000 3.523409 -2.106683 0.032851 2.536690 2.228666 -4.434704 -4.413760 -0.324110 3.630820 0.000000 0.000000 0.000000 3.950606 -2.468073 0.212418 1.082260 -15.606432 -11.223726 0.776473 -0.907069 -0.464135 -20.939859 0.488004 -39.018159 3.315103 -67.271045 3.098871 0.000000 0.000000 0.000000 3.275532 -2.190571 0.149405 -0.315588 12.928460 16.514019 2.100643 4.168806 -1.825843 -10.458605 -6.615698 62.664486 -0.503160 42.909133 1.479121 0.000000 0.000000 0.000000 
-1.629693 96.710724 -0.318848 0.000000 0.000000 0.000000 -24.088073 -11.687297 -1.842550 2.326805 20.378660 14.685834 35.098092 12.203945 -10.510180 -15.411323 26.037263 8.366440 -1.501328 -0.593152 -3.396471 0.000000 0.000000 0.000000 -22.573499 -11.600794 -2.082271 10.620032 -10.771239 -5.224131 31.330184 -10.024450 -0.619729 -16.987874 -26.382461 1.758308 -9.815352 -0.689110 0.595232 0.000000 0.000000 0.000000 -22.637281 -9.734780 -1.528622 9.971808 -3.932100 -0.807948 3.192374 -1.167369 -0.089455 0.723674 0.937551 0.049110 0.000000 0.000000 0.000000 3.643531 -2.130124 0.040961 2.540137 2.162985 -4.261884 -4.477547 -0.512083 3.864536 0.000000 0.000000 0.000000 3.948348 -2.491565 0.242041 1.053688 -15.591707 -11.269059 0.782780 -1.084796 -0.253161 -21.023713 0.290799 -39.255805 3.437623 -67.496571 3.238635 0.000000 0.000000 0.000000 3.219981 -2.250650 0.169733 -0.329952 12.840718 16.525612 2.180017 3.597657 -1.671483 -10.676324 -6.712238 62.614803 -0.478465 42.911586 1.470954 0.000000 0.000000 0.000000 
-2.333800 96.259537 -0.308643 0.000000 0.000000 0.000000 -24.270761 -12.685174 -2.668060 0.083722 19.693751 16.584630 37.835635 11.020581 -10.232213 -14.488940 24.238733 7.818303 -0.998612 -0.244093 -4.721547 0.000000 0.000000 0.000000 -22.740780 -11.524205 -2.646075 10.898678 -11.392374 -4.592217 30.534473 -10.195700 -0.404328 -17.944032 -26.028579 1.325701 -8.827388 -0.543574 0.326990 0.000000 0.000000 0.000000 -22.874874 -10.479242 -2.486533 10.307962 -4.204622 -0.695906 3.167462 -1.260174 -0.064994 0.752611 0.605219 0.389929 0.000000 0.000000 0.000000 3.786524 -2.146515 0.028161 2.412518 2.000425 -3.961446 -4.724342 -0.960194 4.357673 0.000000 0.000000 0.000000 3.967760 -2.504778 0.257349 1.025886 -15.458460 -11.270152 0.717593 -1.229940 -0.153460 -21.441036 0.209744 -39.455114 3.554123 -67.560782 3.406411 0.000000 0.000000 0.000000 3.168830 -2.333700 0.152519 -0.365250 12.750092 16.543063 2.190754 3.242033 -1.477994 -10.978345 -6.795303 62.453501 -0.455916 42.855984 1.519489 0.000000 0.000000 0.000000 
-3.024677 95.961288 -0.239796 0.000000 0.000000 0.000000 -24.342869 -13.623699 -3.765067 -3.144067 18.289076 18.714288 40.964042 9.324377 -9.569447 -13.226159 21.339307 6.453923 -1.261062 0.032701 -5.526154 0.000000 0.000000 0.000000 -23.052628 -12.189756 -3.672179 11.556539 -12.090946 -3.871922 29.432747 -10.097884 -0.120147 -18.917124 -25.482208 0.854925 -7.445132 -0.409464 0.138993 0.000000 0.000000 0.000000 -22.915799 -11.938399 -3.807264 10.537318 -4.408467 -0.401692 3.162068 -1.309692 -0.042563 0.945316 0.557499 0.591518 0.000000 0.000000 0.000000 3.901020 -2.151673 -0.001031 2.203695 1.794640 -3.652156 -5.100930 -1.555394 4.925619 0.000000 0.000000 0.000000 3.989391 -2.509376 0.252730 0.995500 -15.269834 -11.225138 0.516860 -1.346035 -0.233006 -21.980222 0.284041 -39.537643 3.588057 -67.414281 3.510378 0.000000 0.000000 0.000000 3.137889 -2.409704 0.115285 -0.397663 12.697650 16.563812 2.117881 3.127761 -1.417688 -11.233809 -6.893920 62.208393 -0.436246 42.733717 1.611656 0.000000 0.000000 0.000000 
